<svg xmlns:dc="http://purl.org/dc/elements/1.1/" xmlns:cc="http://creativecommons.org/ns#" xmlns:rdf="http://www.w3.org/1999/02/22-rdf-syntax-ns#" xmlns:svg="http://www.w3.org/2000/svg" xmlns="http://www.w3.org/2000/svg" xmlns:sodipodi="http://sodipodi.sourceforge.net/DTD/sodipodi-0.dtd" xmlns:inkscape="http://www.inkscape.org/namespaces/inkscape" viewBox="0 0 26.458333 33.0729175" version="1.1" x="0px" y="0px"><g transform="translate(131.02975,-196.70833)"><path style="color:#000000;font-style:normal;font-variant:normal;font-weight:normal;font-stretch:normal;font-size:medium;line-height:normal;font-family:sans-serif;font-variant-ligatures:normal;font-variant-position:normal;font-variant-caps:normal;font-variant-numeric:normal;font-variant-alternates:normal;font-feature-settings:normal;text-indent:0;text-align:start;text-decoration:none;text-decoration-line:none;text-decoration-style:solid;text-decoration-color:#000000;letter-spacing:normal;word-spacing:normal;text-transform:none;writing-mode:lr-tb;direction:ltr;text-orientation:mixed;dominant-baseline:auto;baseline-shift:baseline;text-anchor:start;white-space:normal;shape-padding:0;clip-rule:nonzero;display:inline;overflow:visible;visibility:visible;opacity:1;isolation:auto;mix-blend-mode:normal;color-interpolation:sRGB;color-interpolation-filters:linearRGB;solid-color:#000000;solid-opacity:1;vector-effect:none;fill:#000000;fill-opacity:1;fill-rule:nonzero;stroke:none;stroke-width:2.64583325;stroke-linecap:round;stroke-linejoin:round;stroke-miterlimit:4;stroke-dasharray:none;stroke-dashoffset:86.95724487;stroke-opacity:1;color-rendering:auto;image-rendering:auto;shape-rendering:auto;text-rendering:auto;enable-background:accumulate" d="m -117.80885,197.26706 a 0.26414543,0.26402268 0 0 0 -0.2601,0.26771 v 2.72246 a 0.26418361,0.26406084 0 1 0 0.52834,0 v -2.72246 a 0.26414543,0.26402268 0 0 0 -0.26824,-0.26771 z m -3.46111,0.92523 a 0.26414543,0.26402268 0 0 0 -0.21695,0.39919 l 1.36208,2.35759 a 0.26414543,0.26402268 0 1 0 0.45744,-0.26388 l -1.36177,-2.35762 a 0.26414543,0.26402268 0 0 0 -0.24095,-0.13526 z m 6.9226,0 a 0.26414543,0.26402268 0 0 0 -0.23295,0.13526 l -1.36206,2.35762 a 0.26414543,0.26402268 0 1 0 0.45746,0.26388 l 1.36207,-2.3576 a 0.26414543,0.26402268 0 0 0 -0.22471,-0.39919 z m -9.43153,2.52836 a 0.26414543,0.26402268 0 0 0 -0.13865,0.49429 l 2.3587,1.36102 a 0.26414543,0.26402268 0 1 0 0.26401,-0.45724 l -2.35881,-1.36103 a 0.26414543,0.26402268 0 0 0 -0.12508,-0.0371 z m 11.96688,0 a 0.26414543,0.26402268 0 0 0 -0.14399,0.0371 l -2.35868,1.36102 a 0.26414543,0.26402268 0 1 0 0.264,0.45725 l 2.35912,-1.36102 a 0.26414543,0.26402268 0 0 0 -0.12047,-0.49429 z m -5.9727,0.6926 c -1.67302,0 -3.03223,1.37428 -3.03223,3.05925 0,0.38409 0.071,0.75274 0.19974,1.0923 -2.21428,-0.5841 -4.50351,-0.87634 -6.7925,-0.87944 a 0.26414546,0.26402271 0 0 0 -0.0482,-0.005 0.26414546,0.26402271 0 0 0 -0.2601,0.26769 v 2.38895 c -0.36867,-0.0308 -0.73936,-0.0553 -1.1121,-0.0727 -0.45058,-0.0218 -0.90414,-0.0313 -1.3602,-0.032 a 0.26414551,0.26402275 0 0 0 -0.0502,-0.005 0.26414551,0.26402275 0 0 0 -0.2601,0.26771 v 0.002 a 0.26418361,0.26406084 0 0 0 0,0.007 v 12.11412 a 0.26418361,0.26406084 0 0 0 0,8e-4 0.26418361,0.26406084 0 0 0 0.002,0.0218 0.26418361,0.26406084 0 0 0 0,0.005 0.26418361,0.26406084 0 0 0 0.005,0.0242 0.26418361,0.26406084 0 0 0 0,0.002 0.26418361,0.26406084 0 0 0 0.007,0.0245 0.26418361,0.26406084 0 0 0 0,9.5e-4 0.26418361,0.26406084 0 0 0 0.01,0.0242 0.26418361,0.26406084 0 0 0 1.2e-4,3.2e-4 0.26418361,0.26406084 0 0 0 0.0121,0.0242 0.26418361,0.26406084 0 0 0 0,8e-4 0.26418361,0.26406084 0 0 0 0.0296,0.0432 0.26418361,0.26406084 0 0 0 0,3.2e-4 0.26418361,0.26406084 0 0 0 0.017,0.017 0.26418361,0.26406084 0 0 0 0.002,0.001 0.26418361,0.26406084 0 0 0 0.0865,0.0557 0.26418361,0.26406084 0 0 0 0.002,7.9e-4 0.26418361,0.26406084 0 0 0 0.0218,0.007 0.26418361,0.26406084 0 0 0 0.005,10e-4 0.26418361,0.26406084 0 0 0 0.0194,0.005 0.26418361,0.26406084 0 0 0 0.005,9.8e-4 0.26418361,0.26406084 0 0 0 0.0218,0.002 0.26418361,0.26406084 0 0 0 0.005,3.2e-4 0.26418361,0.26406084 0 0 0 0.017,7.9e-4 c 3.84995,0 7.51746,0.71441 10.85538,2.00625 0.40402,0.44093 0.9614,0.71972 1.57669,0.71972 0.61525,0 1.17236,-0.27879 1.57635,-0.71972 3.33792,-1.29184 7.00534,-2.00625 10.85529,-2.00625 a 0.26418361,0.26406084 0 0 0 0.007,-3.1e-4 0.26418361,0.26406084 0 0 0 0.005,-1.7e-4 0.26418361,0.26406084 0 0 0 0.0218,-0.002 0.26418361,0.26406084 0 0 0 0.005,-6.6e-4 0.26418361,0.26406084 0 0 0 0.0242,-0.005 0.26418361,0.26406084 0 0 0 0.002,-3.2e-4 0.26418361,0.26406084 0 0 0 0.0487,-0.017 0.26418361,0.26406084 0 0 0 0,-1.7e-4 0.26418361,0.26406084 0 0 0 0.0218,-0.0121 0.26418361,0.26406084 0 0 0 0.002,-6.7e-4 0.26418361,0.26406084 0 0 0 0.0417,-0.0305 0.26418361,0.26406084 0 0 0 0,-9.5e-4 0.26418361,0.26406084 0 0 0 0.017,-0.017 0.26418361,0.26406084 0 0 0 0.002,-0.001 0.26418361,0.26406084 0 0 0 0.017,-0.0194 0.26418361,0.26406084 0 0 0 0,-8e-4 0.26418361,0.26406084 0 0 0 0.0146,-0.0218 0.26418361,0.26406084 0 0 0 0,-7.7e-4 0.26418361,0.26406084 0 0 0 0.0121,-0.0218 0.26418361,0.26406084 0 0 0 0.002,-0.005 0.26418361,0.26406084 0 0 0 0.017,-0.047 0.26418361,0.26406084 0 0 0 0,-0.002 0.26418361,0.26406084 0 0 0 0.005,-0.0242 0.26418361,0.26406084 0 0 0 0,-0.005 0.26418361,0.26406084 0 0 0 0.002,-0.0218 0.26418361,0.26406084 0 0 0 0,-0.0121 0.26418361,0.26406084 0 0 0 0,-0.01 V 207.4879 a 0.26418361,0.26406084 0 0 0 0,-0.017 0.26414551,0.26402275 0 0 0 -0.26732,-0.25174 0.26414551,0.26402275 0 0 0 -0.041,0.005 c -0.45654,6.4e-4 -0.91049,0.0121 -1.36155,0.0325 -0.37263,0.017 -0.74321,0.0417 -1.11179,0.0722 v -2.38906 a 0.26418361,0.26406084 0 0 0 0,-0.017 0.26414546,0.26402271 0 0 0 -0.002,-0.017 0.26418361,0.26406084 0 0 0 0,-0.001 0.26414546,0.26402271 0 0 0 -0.2657,-0.23247 0.26414546,0.26402271 0 0 0 -0.0397,0.005 c -2.27401,0.002 -4.54814,0.2919 -6.74897,0.86831 0.12605,-0.33645 0.19513,-0.70122 0.19513,-1.08104 0,-1.68497 -1.35918,-3.05928 -3.0322,-3.05928 z m 0,0.5282 c 1.38458,0 2.50417,1.12853 2.50417,2.53105 0,0.35064 -0.0703,0.68327 -0.19731,0.98608 -0.12678,0.30281 -0.3105,0.57583 -0.53734,0.80487 -0.11344,0.11442 -0.2378,0.21817 -0.3709,0.30907 -0.15999,0.10932 -0.6285,0.46638 -0.6285,1.12012 a 0.26418361,0.26406084 0 0 0 0.002,0.0332 v 0.2776 h -0.52832 v -1.92687 c 0.44886,-0.11126 0.79234,-0.4978 0.79234,-0.96988 a 0.26418361,0.26406084 0 1 0 -0.52832,0 c 0,0.25782 -0.22155,0.47553 -0.52805,0.47553 -0.30661,0 -0.52834,-0.21768 -0.52834,-0.47553 a 0.26414546,0.26402271 0 0 0 -0.26825,-0.26771 0.26414546,0.26402271 0 0 0 -0.26009,0.26771 c 0,0.47199 0.34353,0.85833 0.79236,0.96979 v 1.92696 h -0.52805 v -0.31071 a 0.26414543,0.26402268 0 0 0 -0.002,-0.0274 c -0.0121,-0.62232 -0.40854,-0.97215 -0.5854,-1.0928 -0.13332,-0.0909 -0.25739,-0.19465 -0.37081,-0.30906 -0.22689,-0.22907 -0.41058,-0.50207 -0.53741,-0.80488 -0.12677,-0.30281 -0.19683,-0.63544 -0.19683,-0.98607 0,-1.40253 1.11916,-2.53106 2.50376,-2.53106 z m -9.40533,3.27375 c 2.32707,0.0218 4.65155,0.34906 6.88981,0.98358 a 0.26414546,0.26402271 0 0 0 0.0145,0.005 c 0.10544,0.15489 0.22446,0.29985 0.35572,0.4324 0.13696,0.13841 0.28708,0.26368 0.44838,0.37371 0.11514,0.0785 0.35606,0.25811 0.35606,0.68404 v 0.57491 0.83447 c 0,0.63641 0.45531,1.17032 1.05679,1.29317 v 8.92411 c -2.82216,-1.06294 -5.89921,-1.66065 -9.12109,-1.69166 z m 18.77054,0 v 12.41247 c -3.22188,0.031 -6.29895,0.62877 -9.12111,1.69173 v -8.9242 c 0.60133,-0.1229 1.05637,-0.6568 1.05637,-1.29318 v -0.83447 -0.57491 a 0.26414543,0.26402268 0 0 0 0,-0.0293 c 0.0121,-0.39078 0.26584,-0.56517 0.39701,-0.65464 0.1612,-0.11005 0.31134,-0.23537 0.4484,-0.37371 0.13502,-0.13647 0.25724,-0.28572 0.36498,-0.44571 2.22747,-0.62806 4.54017,-0.95165 6.85515,-0.974 z m -21.55275,2.54757 c 0.37447,0.002 0.74738,0.0145 1.11794,0.0305 0.38101,0.017 0.75965,0.0429 1.13624,0.0749 v 10.02174 a 0.26414546,0.26402271 0 0 0 1.3e-4,0.005 0.26418361,0.26406084 0 0 0 7e-5,0.005 0.26414546,0.26402271 0 0 0 0.32872,0.25482 c 3.34471,0.007 6.53093,0.6382 9.43275,1.77301 a 0.26414546,0.26402271 0 0 0 0.15125,0.0427 0.26414546,0.26402271 0 0 0 0.15223,-0.0427 c 2.9206,-1.14216 6.12915,-1.77342 9.49754,-1.77342 a 0.26418361,0.26406084 0 0 0 0.007,-3.1e-4 0.26418361,0.26406084 0 0 0 0.005,-1.7e-4 0.26418361,0.26406084 0 0 0 0.0218,-0.002 0.26418361,0.26406084 0 0 0 0.005,-6.6e-4 0.26418361,0.26406084 0 0 0 0.0218,-0.005 0.26418361,0.26406084 0 0 0 0.002,-3.1e-4 0.26418361,0.26406084 0 0 0 0.0487,-0.017 0.26418361,0.26406084 0 0 0 0,-1.7e-4 0.26418361,0.26406084 0 0 0 0.0218,-0.0121 0.26418361,0.26406084 0 0 0 0.002,-6.6e-4 0.26418361,0.26406084 0 0 0 0.0417,-0.0303 0.26418361,0.26406084 0 0 0 0,-9.5e-4 0.26418361,0.26406084 0 0 0 0.017,-0.017 0.26418361,0.26406084 0 0 0 0.002,-0.001 0.26418361,0.26406084 0 0 0 0.017,-0.0194 0.26418361,0.26406084 0 0 0 0,-8e-4 0.26418361,0.26406084 0 0 0 0.0267,-0.0444 0.26418361,0.26406084 0 0 0 0,-9.5e-4 0.26418361,0.26406084 0 0 0 0.017,-0.0487 0.26418361,0.26406084 0 0 0 0,-0.002 0.26418361,0.26406084 0 0 0 0.005,-0.0242 0.26418361,0.26406084 0 0 0 0,-0.005 0.26418361,0.26406084 0 0 0 0.002,-0.0218 0.26418361,0.26406084 0 0 0 0,-0.0121 0.26418361,0.26406084 0 0 0 0,-0.01 v -10.01285 c 0.3766,-0.032 0.75542,-0.0572 1.13634,-0.0749 0.37056,-0.017 0.74316,-0.0272 1.11755,-0.0305 v 11.59532 c -3.84136,0.0322 -7.50257,0.76335 -10.83996,2.0631 a 0.26414548,0.26402273 0 0 0 -0.007,0.002 0.26415482,0.26403206 0 0 0 -0.007,0.002 0.26414548,0.26402273 0 0 0 -0.12048,0.0999 c -0.31658,0.35024 -0.73341,0.55634 -1.19442,0.55634 -0.4641,0 -0.8837,-0.20896 -1.20103,-0.56335 a 0.26414548,0.26402273 0 0 0 -0.0781,-0.0744 0.26414546,0.26402271 0 0 0 -0.081,-0.0364 c -3.32861,-1.29179 -6.97877,-2.01847 -10.80754,-2.05051 z m 11.37527,0.76868 h 1.58471 v 0.57057 c 0,0.44333 -0.34882,0.79201 -0.79234,0.79201 -0.44355,0 -0.79237,-0.34868 -0.79237,-0.79201 z m 0.94719,0.36433 a 0.26414543,0.26402268 0 0 0 -0.002,1e-4 h -0.30456 a 0.26414543,0.26402268 0 1 0 0,0.52769 h 0.30456 a 0.26414543,0.26402268 0 1 0 0.002,-0.52779 z m -8.08149,1.02278 a 0.26422206,0.26409926 0 1 0 0,0.52819 c 2.17157,0 4.23889,0.35828 6.11776,1.00516 a 0.26423556,0.26411276 0 1 0 0.17235,-0.49933 c -1.93487,-0.66618 -4.06048,-1.03402 -6.29016,-1.03402 z m 15.85343,0 c -2.22972,0 -4.35529,0.36784 -6.29015,1.03402 a 0.26418943,0.26406665 0 1 0 0.17211,0.49933 c 1.87884,-0.64688 3.94654,-1.00516 6.11816,-1.00516 a 0.26422206,0.26409926 0 1 0 0,-0.52819 z m -15.85343,2.65429 a 0.26418361,0.26406084 0 1 0 0,0.5281 c 2.17157,0 4.23889,0.35837 6.11776,1.00525 a 0.26423566,0.26411288 0 1 0 0.17235,-0.49933 c -1.93487,-0.66617 -4.06048,-1.03402 -6.29016,-1.03402 z m 15.85343,0 c -2.22972,0 -4.35529,0.36785 -6.29015,1.03402 a 0.26418943,0.26406665 0 1 0 0.17211,0.49933 c 1.87884,-0.64688 3.94654,-1.00525 6.11816,-1.00525 a 0.26418361,0.26406084 0 1 0 0,-0.5281 z m -15.85343,2.80003 a 0.26418361,0.26406084 0 0 0 0,0.5281 c 2.17157,0 4.23889,0.35834 6.11776,1.00525 a 0.26423869,0.26411591 0 1 0 0.17235,-0.49933 c -1.93487,-0.66617 -4.06048,-1.03402 -6.29016,-1.03402 z m 15.85343,0 c -2.22972,0 -4.35529,0.36785 -6.29015,1.03402 a 0.26418944,0.26406669 0 1 0 0.17211,0.49933 c 1.87884,-0.64691 3.94654,-1.00525 6.11816,-1.00525 a 0.26418361,0.26406084 0 1 0 0,-0.5281 z"/></g><text x="0" y="41.458334" fill="#000000" font-size="5px" font-weight="bold" font-family="'Helvetica Neue', Helvetica, Arial-Unicode, Arial, Sans-serif">Created by Lia Rahdiah</text><text x="0" y="46.458334" fill="#000000" font-size="5px" font-weight="bold" font-family="'Helvetica Neue', Helvetica, Arial-Unicode, Arial, Sans-serif">from the Noun Project</text></svg>